<?xml version="1.0" standalone="no"?>
<!DOCTYPE svg PUBLIC "-//W3C//DTD SVG 20010904//EN"
 "http://www.w3.org/TR/2001/REC-SVG-20010904/DTD/svg10.dtd">
<svg version="1.0" xmlns="http://www.w3.org/2000/svg"
 width="162.000000pt" height="162.000000pt" viewBox="0 0 162.000000 162.000000"
 preserveAspectRatio="xMidYMid meet">
<metadata>
Created by potrace 1.15, written by Peter Selinger 2001-2017
</metadata>
<g transform="translate(0.000000,162.000000) scale(0.100000,-0.100000)"
fill="#000000" stroke="none">
<path d="M885 1519 c-39 -24 -87 -49 -92 -49 -2 0 -1 6 3 13 4 7 3 9 -2 4 -5
-5 -8 -11 -7 -13 11 -18 -108 -101 -127 -89 -4 3 -13 -2 -20 -10 -7 -8 -18
-15 -24 -15 -8 0 -8 2 0 8 6 4 16 17 23 30 7 12 16 20 20 17 10 -5 68 21 76
36 8 12 -2 12 -26 -1 -13 -8 -19 -7 -19 0 0 15 -69 -27 -95 -57 -15 -17 -24
-20 -35 -13 -13 9 -11 13 10 30 51 41 54 44 42 48 -7 2 -9 8 -6 14 4 6 -12 0
-36 -13 -24 -13 -51 -36 -59 -51 -9 -16 -21 -28 -28 -28 -20 0 -96 -78 -88
-90 12 -20 15 -103 5 -115 -6 -7 -13 -43 -15 -81 -3 -38 -7 -83 -10 -101 -4
-19 -1 -34 6 -39 7 -4 9 -3 6 3 -4 6 0 14 9 17 25 10 26 7 4 -16 -11 -12 -20
-25 -20 -29 0 -17 13 -39 20 -34 4 3 8 -5 7 -18 0 -12 3 -35 6 -50 7 -34 76
-175 89 -183 19 -12 20 7 4 68 -10 35 -17 86 -18 113 0 28 -4 55 -10 62 -5 7
-7 17 -3 23 3 5 2 10 -3 10 -9 0 0 79 13 113 6 13 3 16 -9 11 -12 -5 -19 0
-23 14 -3 12 -11 18 -18 16 -7 -3 -16 -1 -19 4 -3 5 5 8 17 7 12 -1 45 3 72
11 55 14 131 20 155 11 34 -12 108 -27 150 -30 25 -3 50 -5 55 -7 6 -1 46 -2
91 -1 87 1 96 6 162 91 l20 24 37 -37 c38 -38 59 -42 38 -8 -9 14 -8 23 3 39
11 16 11 21 1 25 -7 3 -5 6 6 6 21 1 21 6 -6 56 -13 23 -32 42 -47 46 -14 4
-19 7 -12 8 6 1 12 6 12 12 0 14 -41 53 -65 63 -10 3 -15 9 -11 13 6 6 -32 37
-49 39 -5 0 -18 2 -28 2 -10 1 -15 7 -12 12 5 8 11 8 20 0 11 -9 12 -7 8 9 -4
16 -9 18 -23 11 -9 -5 -21 -6 -25 -2 -5 4 -5 1 0 -6 6 -12 3 -12 -15 -2 -20
11 -26 9 -49 -15 -20 -22 -22 -26 -7 -21 16 5 17 4 6 -9 -7 -9 -15 -13 -18
-11 -2 3 -13 1 -23 -5 -28 -15 -23 6 6 25 14 9 25 21 25 27 0 7 -6 6 -17 -2
-11 -10 -14 -10 -9 -1 5 9 1 11 -16 8 -13 -3 -28 -5 -34 -5 -6 -1 -22 -11 -35
-23 -14 -13 -38 -34 -55 -48 -17 -14 -4 1 29 33 33 31 62 55 65 52 3 -3 11 4
19 14 8 12 21 18 34 16 11 -2 22 2 26 11 8 22 1 23 -32 3z"/>
<path d="M820 703 c-42 -3 -55 -7 -117 -36 -12 -5 -19 -15 -16 -20 4 -6 0 -8
-10 -4 -9 3 -19 2 -22 -3 -4 -6 0 -10 7 -10 9 0 9 -3 -2 -10 -12 -7 -12 -13
-4 -27 10 -16 35 -26 106 -40 17 -3 25 -10 21 -19 -4 -10 4 -14 28 -14 23 0
54 14 97 43 61 40 63 43 58 76 -3 19 -11 40 -18 47 -16 15 -68 22 -128 17z"/>
<path d="M378 517 c-16 -6 -31 -19 -34 -29 -3 -11 -11 -17 -17 -15 -7 2 -30
-5 -52 -16 -22 -12 -45 -20 -52 -19 -7 2 -19 -11 -28 -28 -17 -32 -14 -39 28
-78 23 -22 22 -40 -2 -18 -17 16 -20 16 -36 0 -15 -16 -13 -20 37 -71 106
-109 250 -193 389 -227 89 -22 309 -22 398 0 88 22 198 73 276 128 58 42 195
179 195 196 0 4 -16 11 -35 14 -19 4 -39 15 -45 25 -5 10 -34 30 -65 45 -30
14 -55 32 -55 40 0 8 -4 17 -9 21 -5 3 -15 -21 -21 -52 -7 -32 -22 -83 -35
-113 -13 -30 -29 -73 -34 -96 -24 -91 -143 -139 -237 -93 -59 28 -45 46 44 53
94 7 93 7 131 30 26 17 34 29 37 58 l3 37 -37 -19 c-20 -10 -68 -22 -107 -25
-38 -4 -90 -16 -114 -27 l-44 -20 -69 37 c-38 19 -73 33 -78 30 -5 -3 -28 23
-51 57 -66 98 -109 152 -109 138 0 -7 -3 -10 -7 -7 -3 4 -13 1 -21 -6 -10 -8
-13 -8 -9 -1 10 16 -21 26 -43 14 -25 -13 -40 -12 -17 1 21 12 23 33 3 26 -10
-4 -13 -1 -9 9 6 17 -28 18 -69 1z"/>
</g>
</svg>
